<?xml version="1.0" encoding="utf-8"?>
<!-- Generator: Adobe Illustrator 19.0.0, SVG Export Plug-In . SVG Version: 6.00 Build 0)  -->
<svg version="1.1" id="Layer_1" xmlns="http://www.w3.org/2000/svg" xmlns:xlink="http://www.w3.org/1999/xlink" x="0px" y="0px"
	 viewBox="0 0 469.5 469.5" style="enable-background:new 0 0 469.5 469.5;" xml:space="preserve">
<style type="text/css">
	.st0{fill-rule:evenodd;clip-rule:evenodd;}
</style>
<g>
	<path class="st0" d="M196.2,469.5c-2.4-12.2,22.6-48.4,28.9-60.4c15-43.1,15-43.1,22.4-58c16.6-22.6,56.7-66,45-99.5
		c-14.9-12.4-19.3-10.3-33.7,4.1c-12.8,26.1-24.6,50.4-49.8,64.8c-5.1,5-10.1,10-15.1,15c-0.3-1.8-0.5-3.5-0.8-5.1
		c8.9-11,28.7-21.9,28-35.6c-7.6-6.4-15-12.7-22.4-18.9c1.2-0.3,2.4-0.4,3.7-0.5c6.2,6.8,8.1,7.4,17,6.2c3.9-18.1-1.8-37.6-1.8-56.4
		c7.4-26.8,11.2-53.1,15-80.7c10.1-31.1,28.9-60,17.4-93.2C221.2,39,215.6,93.4,212,109c-7.6,18.8-14.7,29.9-26.4,54.5
		c-7.3,34.1-17.3,67.6-30.2,100.1c-1.2,0-2.3,0-3.4,0c-0.7-3.2-1.4-6.5-2-9.6c-2.4,2.8-4.9,5.8-7.3,8.8
		c-14.3,52.9-17.4,107.6-32.3,160.5c-1.5,0.4-3,0.8-4.5,1.2c2.7-15.4,10.3-41.6,13.9-62.3c1.9-22.4,1.9-22.4,1.8-58
		c-15.4-15.4-49.8-37.3-10.5-51.1c-0.3-1.2-0.5-2.3-0.7-3.4c-21.8-17.6-33-40.7,0.7-51.1c-0.3-1.2-0.5-2.3-0.7-3.4
		c-22.9-22.3-41.1-54.6,3.9-61.1c-11.2-16.2-75-76.9-17.6-76.9c8.2,5.8,16.6,11.6,25,17.4c0.3-24.9,0.7-49.8,1.1-74.5
		c70,0,140.2,0,210.4,0c0.1,37.3,0.3,74.6,0.4,112.1c15.4-3.1,19.6-19.9,37.9-7.3c1.9,5.7,1.9,5.7,4.1,39.6c3,6.2,6.1,12.4,9.2,18.7
		c0,37.5,6.4,72.3,9.3,109.4c-1.9,13.1-1.9,13.1-15,54c1.8,20.4,8.8,34.2,17.2,53c-1.6,0.5-3.2,1.1-4.9,1.8
		c-1.2-2.8-13.4-38.4-19.6-41.1c-7.8,15.6-7.8,15.6-10.7,17.8c-1.6-21.9,13.5-45.3,21.8-65.3c3.1-14.2,3.8-26.2,3.8-40.8
		c-7.4-36.9-1.6-74.9-16.9-109c-1.6-32.7-2.4-53.8-33.8-22.4c-5.3,17.2-0.9,42.5-0.7,60.7c2.4,0.9,4.9,1.9,7.3,3c0,1.8,0,3.7,0,5.5
		c-15.1,4.2-8.2,32.6-8.2,45c1.1,0.4,2.3,0.8,3.5,1.2c6.2-15.4,12.4-30.8,18.8-46.2c0,18.4-12.4,41.1-18.9,58.4
		c-3.9,39.2-3.7,79.1-3.7,117.9c6.4,14.3,15.4,28.1,14.9,44.1c-6.2,3.9-6.2,3.9-15.3,5.4c-0.1,9.9-0.3,19.7-0.4,29.6
		c-39.5,0.3-79,0.7-118.5,1.1C209.5,455.2,205.7,464.8,196.2,469.5L196.2,469.5z M220.6,431.9c2.8-5.7,5.7-11.4,8.5-16.9
		c0.9,2.2,1.9,4.3,3,6.5c2-0.4,4.1-0.8,6.2-1.1c1.1-3.1,2.2-6.1,3.4-9.1c1.2,3.5,2.4,7,3.8,10.7c2-0.5,4.1-1.1,6.1-1.6
		c0.9-5.4,0.9-5.4,2.8-5.4c0,5.5,0,11.2,0,16.9C243,431.9,231.8,431.9,220.6,431.9L220.6,431.9z M267.6,431.9c0-6.9,0-13.8,0-20.7
		c1.8,0,1.8,0,5,9.9c1.5,0,3.1,0,4.7,0c1.1-3.4,2.2-6.6,3.4-9.9c13.3,1.6,14.3,9.7,23.8,19.2C292.2,430.8,279.9,431.4,267.6,431.9
		L267.6,431.9z M314.5,431.9c-14.5-16.5-23.1-26.8-28.5-48c-12.8-6.1-17.8-14.6-24.6-26.6c-2.2-0.1-4.2-0.3-6.2-0.3
		c0-9.2,0.7-11.2,6.5-18.1c15,0,24.5,18.4,36.8,27c3,23.9,20.3,36.9,31.9,56.4c0,4.1,0,4.1-2,8.4
		C323.7,431.1,319.1,431.5,314.5,431.9L314.5,431.9z M329.5,409.3c-13.1-13.7-22.9-28.3-25.7-47.1c-10.8-8.9-20.8-27.2-33.4-29.2
		c0-10.4,5.8-13.7,12.6-21.2c2.3,3.4,4.1,18.4,8.1,26.1c10.1,10.1,10.1,10.1,23.5,19.7c15.3,2.6,13.7,3.4,15.7,17.6
		c5.8,11,13.5,20.4,13,33C338.7,408.5,334.1,408.9,329.5,409.3L329.5,409.3z M239.4,407.6c-2.2-17.3-2-26.6,10.8-42.9
		c1.4,0.4,2.7,0.9,4.2,1.5c0,13.1,0,26.2,0,39.5c-1.9,0-2.8-5.7-6.5-9.5c-3.8,5.7-3.8,5.7-4.7,11.4
		C241.8,407.6,240.6,407.6,239.4,407.6L239.4,407.6z M267.6,407.6c0-8.8,0-17.6,0-26.4c5.5,3.8,8.5,6.2,15,7.6
		c-0.8,7.6,0.3,10.1,3.1,17.3c-1.8,0.4-3.4,0.9-5,1.5c-1.2-3.4-2.3-6.8-3.4-10c-1.6,0-3.2,0-4.7,0
		C269.4,407.6,269.4,407.6,267.6,407.6L267.6,407.6z M320.1,355c-1.6-2.7-14.3-11.5-23.3-20c-11-22.7-3-37.5,3.8-61.5
		c27.3,0,26.8,52.9,29.7,68c-0.1,3.4-0.1,6.9-0.1,10.4C327.8,353.9,327.8,353.9,320.1,355L320.1,355z M119.1,296.7
		c-11.9-12.8-27-19.6-15.3-36.8c11.5,0,15.6,3.7,25.4,9.7c0,9.7-1.1,16.5-3.8,25.8C123.3,295.9,121.2,296.3,119.1,296.7L119.1,296.7
		z M228.1,291c-0.7-12.6-1.4-25-1.9-37.5c20.8-1.1,20.8-1.1,26.2,0C251.4,257.9,251.4,257.9,228.1,291L228.1,291z M318.3,274.1
		c-7.8-6.6-7.8-6.6-15.8-10.5c-2.7-9.2-3.7-17.4-12.4-21.4c1.6-4.1,3.2-8.1,4.9-12c12.2,0,14.7,0.3,25.2,6.5
		C319.4,249.1,318.9,261.5,318.3,274.1L318.3,274.1z M130.5,257.2c-13.1-10.8-43.3-26.5-32.7-47.7
		C125.1,195.4,168.1,250.2,130.5,257.2L130.5,257.2z M252.5,247.9c-13.1-2.8-13.1-2.8-28.7-3.4c-1.1-5.1-2.2-10.3-3.2-15.4
		c11.2,0,22.4,0,33.8,0C253.7,235.3,253,241.5,252.5,247.9L252.5,247.9z M267.6,238.5c0-3.2,0-6.4,0-9.5c1.8,0,1.8,0,2.7,6.6
		C269.4,236.6,268.4,237.6,267.6,238.5L267.6,238.5z M152.9,236.6c-0.4-2.6-0.7-5.1-0.9-7.6C154,234.9,154,234.9,152.9,236.6
		L152.9,236.6z M280.7,236.6c0-2.4,0-5,0-7.6c1.2,0,2.4,0,3.8,0c0,2.4,0,5,0,7.6C283.3,236.6,282.1,236.6,280.7,236.6L280.7,236.6z
		 M224.3,225.3c-1.9-8.5,6.6-23.1,7.6-33.8c2-0.8,4.2-1.5,6.4-2.2c1.1-3,2.2-5.9,3.4-8.9c1.2,3.5,2.4,7,3.8,10.5
		c2-0.5,4.1-1.1,6.1-1.6c0.9-5.3,0.9-5.3,2.8-5.3c0,13.7,0,27.5,0,41.2C244.4,225.3,234.3,225.3,224.3,225.3L224.3,225.3z
		 M267.6,225.3c0.3-10,0.5-20,0.8-30c6.4,6.1,12.7,12.2,19.2,18.3c-1.1,3.2-2.2,6.5-3.1,9.9c-1.4,0-2.6,0-3.8,0
		c-1.1-6.5-1.9-8-8.1-8C270.9,218.7,269.2,221.9,267.6,225.3L267.6,225.3z M295.7,225.3c-0.5-1.5-1.1-2.8-1.5-4.2
		c1.4-0.1,2.7-0.3,4.1-0.3c0.7,0.9,1.5,1.9,2.3,2.8C299,224.2,297.4,224.7,295.7,225.3L295.7,225.3z M310.7,225.3
		c-14.1-11.8-28.1-23.4-42.1-35c-0.1-2.7-0.3-5.4-0.3-8.1c2,5.5,2,5.5,4.6,8.1c1.5-0.4,3.1-0.7,4.7-0.9c0.9-3.1,1.9-6.1,3-9.1
		c8.7,0,17.4,0,26.2,0c0.9,3.1,1.9,6.2,3,9.3c1.2,0.3,2.4,0.7,3.7,1.1c3.7-5,4.7-10.4,6.5-10.4c0,15,0,30,0,45
		C317,225.3,313.9,225.3,310.7,225.3L310.7,225.3z M151.1,223.4c-0.9-5.7-1.6-7.8-7-8.9c-0.5,1.4-1.1,2.7-1.6,4.1
		c-1.5,0.4-3,0.8-4.5,1.2c-0.7-4.5-1.4-8.9-1.9-13.3c11.2-6.6,10.7-13.1,12.4-25.2c1.1,0,2.2,0,3.2,0c1.1,3.1,2.3,6.4,3.5,9.6
		c1.5,0,3.1,0,4.7,0c1.1-3.2,2.3-6.5,3.5-9.6c1.1,0,2.2,0,3.4,0c7,14.9,1.8,23.1-3.5,38.4c-2.2-3.9-2.2-3.9-5.7-5
		C155.4,217.6,153.2,220.4,151.1,223.4L151.1,223.4z M124.8,199.1c-11.5-9.7-51.7-42.6-22.9-57.5c25.3,0,43.8,33.1,36.6,56.3
		C134,198.2,129.4,198.6,124.8,199.1L124.8,199.1z M147.4,176.5c-3.1-5.3-6.2-10.4-9.3-15.6c6.6,0,7.7,4.3,13.7,7.3c0,2.3,0,4.6,0,7
		C150.2,175.7,148.8,176.1,147.4,176.5L147.4,176.5z M267.6,176.5c0.3-13.8,0.5-27.6,0.8-41.2c1.4,2.6,2.7,5.1,4.2,7.8
		c2.2,0,4.3,0,6.6,0c0.4-2.7,0.9-5.3,1.5-7.8c1.2,0,2.4,0,3.8,0c0.5,3.1,1.1,6.2,1.8,9.3c2.4,0,5,0,7.6,0c0.5-3.1,1.2-6.2,1.9-9.3
		c8.1,0,16.2,0,24.3,0c0,13.7,0,27.4,0,41.2c-1.8,0-4.6-9.3-6.5-11.2c-3.8,3.8-3.8,3.8-6.6,11.2c-8.8,0-17.6,0-26.2,0
		c-0.8-5.8-2.4-7-6.6-11.2C271.9,168.9,269.8,172.7,267.6,176.5L267.6,176.5z M166.2,174.6c-4.6-4.9-4.6-4.9-6.2-8.9
		c-14.3-4.1-23.3-15.3-22.3-29.7c1.1,2.2,2.2,4.3,3.2,6.6c1.9,0.4,3.9,0.9,5.9,1.5c0.8-3,1.6-5.9,2.4-8.8c1.2,0,2.4,0,3.7,0
		c0.7,2.8,1.5,5.8,2.3,8.8c2-0.5,4.1-1.1,6.1-1.6c1.1-2.4,2.2-4.7,3.4-7c3.4,5.9,3.8,7,10.3,8.7c0.8-3,1.6-5.9,2.4-8.8
		c3.9,0.3,7.8,0.7,11.9,1.1c0.1,4.6,0.1,4.6-11,34.6c-2.2-3.9-2.2-3.9-5.7-5C170.5,168.8,168.4,171.6,166.2,174.6L166.2,174.6z
		 M252.5,174.6c-0.9-5.5-0.9-5.5-3.5-8.2c-5.5,1.1-7.3,1.8-12.3-0.4c0-11.6,1.1-17.6,5-28.7c1.6,2.6,3.4,5.3,5.1,8
		c1.5-0.9,3.1-1.9,4.7-2.8c0.3-2.4,0.5-4.9,0.9-7.2c0.5,0,1.2,0,1.9,0c0,13.1,0,26.2,0,39.3C253.7,174.6,253,174.6,252.5,174.6
		L252.5,174.6z M119.1,131.4c-3.9-10.8-70.3-70.6-26.1-70.6c12.6,4.3,18.8,14.7,28.8,21.5c0.3,16.4,0.7,32.7,1.1,49.1
		C121.6,131.4,120.4,131.4,119.1,131.4L119.1,131.4z M136,129.5c0-10.7,0-21.4,0-31.9c28.3,21.6,28.3,21.6,31.9,22.6
		c-0.9,3.1-1.9,6.2-2.7,9.3c-1.6-3.8-3.2-7.6-4.7-11.2c-2.2,0.9-4.2,2-6.2,3.1c-0.5,2.7-0.9,5.4-1.4,8.1c-1.2,0-2.4,0-3.7,0
		c-2.8-9.3-2.8-9.3-4.7-11.2C140.8,122,137.9,129.5,136,129.5L136,129.5z M186.8,129.5c-3.9-4.9-28.9-21.9-38.7-32.2
		c1.1-3.1,2.2-6.1,3.4-9.1c1.2,2.8,2.4,5.8,3.8,8.8c2.2,0,4.3,0,6.6,0c0.8-3,1.6-5.9,2.4-8.9c15,0,30,0,45,0
		c1.5,13.8-7.2,27.4-12.4,40.2C193.5,128.7,190.1,129.1,186.8,129.5L186.8,129.5z M252.5,129.5c-0.5-3.8-5.9-22.6,1.9-22.6
		c0,7.4,0,15,0,22.6C253.7,129.5,253,129.5,252.5,129.5L252.5,129.5z M267.6,129.5c0.3-13.8,0.5-27.6,0.8-41.4
		c1.4,2.6,2.7,5.3,4.2,8c2.2,0,4.3,0,6.6,0c0.4-2.7,0.9-5.4,1.5-8c8.7,0,17.4,0,26.2,0c0.8,7.4,0.7,9.2,7.6,10.4
		c2.3-2.4,3.8-10.4,5.5-10.4c0,13.8,0,27.6,0,41.4c-8.1,0-16.2,0-24.3,0c-1.2-3.4-2.3-6.6-3.4-9.9c-1.6,0-3.2,0-4.7,0
		c-1.1,3.2-2.2,6.5-3.1,9.9c-1.4,0-2.6,0-3.8,0c-0.5-2.7-1.1-5.4-1.5-8.1c-2.3,0-4.5,0-6.6,0c-0.5,2.7-0.9,5.4-1.4,8.1
		C270,129.5,268.8,129.5,267.6,129.5L267.6,129.5z M136,84.5c0-13.8,0-27.6,0-41.4c1.2,0,2.4,0,3.8,0c0.8,7.3,0.7,9.9,8,9.9
		c1.4-3.4,2.7-6.6,4.2-9.9c0.9,3.1,1.9,6.2,2.8,9.5c2,0.1,4.1,0.3,6.1,0.4c1.4-3.4,2.8-6.6,4.3-9.9c0.8,3.1,1.8,6.2,2.7,9.5
		c2,0.1,4.1,0.3,6.1,0.4c1.4-2,2.8-4.1,4.3-6.1c0.3,1.9,0.5,3.8,0.9,5.7c1.9,0.1,3.9,0.3,5.9,0.4c1.1-3.4,2.2-6.6,3.4-9.9
		c16.9,0,33.8,0,50.7,0c0,1.9-13.1,8.5-17.4,12.6c-2.3,5.8-4.6,11.6-6.9,17.4c-1.4,0-2.6,0-3.8,0c-1.2,3.2-2.3,6.5-3.4,9.9
		c-14.6,0.4-29.1,0.9-43.5,1.5c-1.1-9.1-1.8-9.3-9.5-11.4c-0.9,3.8-1.9,7.6-2.8,11.4c-1.6-3.8-3.1-7.6-4.6-11.4c-1.9,0-3.8,0-5.7,0
		C138.9,82.6,138.9,82.6,136,84.5L136,84.5z M282.6,84.5c-1.1-3.2-2.2-6.5-3.1-9.6c-2.2-0.3-4.3-0.5-6.5-0.7
		c-1.5,2.7-2.8,5.4-4.2,8.1c0-12.8,0.1-25.7,0.3-38.5c1.9,3.1,3.8,6.2,5.8,9.5c1.5-0.9,3.1-1.9,4.7-2.8c0.3-2.4,0.7-4.9,1.1-7.3
		c1.2,0,2.4,0,3.8,0c0.9,3.1,1.9,6.2,2.8,9.3c1.2,0.4,2.4,0.8,3.7,1.2c3.7-5.1,3.7-5.1,4.7-10.5c8.1,0,16.2,0,24.3,0
		c0,13.8,0,27.6,0,41.4c-1.8,0-1.8,0-4.9-9.6c-1.2-0.4-2.4-0.8-3.5-1.1c-3.9,5.1-3.9,5.1-4.7,10.7C298.8,84.5,290.7,84.5,282.6,84.5
		L282.6,84.5z M136,39.4c0-7.6,0-15,0-22.4c39.3,0,78.8,0,118.3,0c0,7.4,0,14.9,0,22.4c-1.2,0-2.4,0-3.7,0c-0.8-7.3-0.9-9.9-8.1-9.9
		c-1.1,3.2-2.2,6.5-3.2,9.9c-16.9,0-33.8,0-50.7,0c-0.7-3.8-1.4-7.6-1.9-11.2c-2,0.4-4.1,0.8-6.1,1.4c-0.8,1.4-1.6,2.8-2.3,4.3
		c-0.9-1.9-1.9-3.8-2.8-5.7c-2.2,0.4-4.2,0.8-6.2,1.4c-1.4,2.6-2.7,5.3-4.1,8c-0.9-3.1-1.9-6.2-2.8-9.3c-2.2,0.4-4.2,0.8-6.2,1.4
		c-1.5,3.2-2.8,6.5-4.2,9.9c-1.5-3.4-2.8-6.6-4.2-9.9c-8-0.7-6.8,3.8-8,9.9C138.5,39.4,137.3,39.4,136,39.4L136,39.4z M267.6,39.4
		c0.4-7,0.8-14.1,1.2-21.1c17-0.5,34.1-0.9,51.2-1.4c0,7.4,0,14.9,0,22.4c-8.1,0-16.2,0-24.3,0c-1.2-3.4-2.3-6.6-3.4-9.9
		c-1.6,0-3.2,0-4.7,0c-1.4,3.2-2.7,6.5-4.1,9.9c-1.6-3.8-3.2-7.6-4.7-11.2c-1.9,0-3.8,0-5.7,0C270.3,37.5,270.3,37.5,267.6,39.4
		L267.6,39.4z"/>
</g>
</svg>
