<?xml version="1.0" encoding="utf-8"?>
<!-- Generator: Adobe Illustrator 19.0.0, SVG Export Plug-In . SVG Version: 6.00 Build 0)  -->
<svg version="1.1" id="Laag_1" xmlns="http://www.w3.org/2000/svg" xmlns:xlink="http://www.w3.org/1999/xlink" x="0px" y="0px"
	 viewBox="135.5 112.7 566.9 566.9" style="enable-background:new 135.5 112.7 566.9 566.9;" xml:space="preserve">
<style type="text/css">
	.st0{fill:#1E428A;}
</style>
<path class="st0" d="M368.3,247.1c32.1-26,116.9-65.2,166.6-65.2c5.2-3,15.3-13.8,6.5-18.5c-56,0-155.4,44.1-195,83.7h11.6
	L368.3,247.1L368.3,247.1z"/>
<path class="st0" d="M271.5,611c-27.1,0-50.8-6.8-68-20.3c-7.7-6.5-41.3-40-19.3-115.7c2.3-7.5,4.8-15.2,7-23.6
	c1.1-4.1-4.8-9.8-8.4-5.3c-3.7,4.8-6.8,10.6-9.3,16.9l0,0c0,0-20.2,43.8-11.6,89c2.7,17.3,9.6,32,19.7,43.7c0,0.1,0.1,0.1,0.1,0.2
	l0,0c18.8,21.5,48.6,33,83.8,33c89.4,0,190.3-48.6,262.2-106.3h-21.1C442.8,570,346,611,271.5,611z"/>
<path class="st0" d="M460.7,335.9h102.9v-83.4c-29.3,0-51.1,0-67.2,0c-0.1,0-10.1,0-39.4,0c-32.6,0-89,0-182.6,0v83.4h102.9
	c0,32.6,0,65,0,97.6H274.4v83.1h289.2c0-83,0-54.9,0-83.1H460.7V335.9z"/>
<polygon class="st0" points="266.8,426 369.8,426 369.8,343.5 266.8,343.5 266.8,252.5 135.5,384.7 266.8,516.6 "/>
<polygon class="st0" points="702.5,384.7 571.2,252.5 571.2,343.5 468.2,343.5 468.2,426 571.2,426 571.2,516.6 "/>
<path class="st0" d="M662.4,271.1c0,17.7-1.8,31.6-7.4,48.4c-1.7,7.2-0.2,11.1,7,6.7c9.5-14.5,13-40.6,13-58.2
	c0-55.3-26.9-94.1-83-104.4c-7.3,1.7-12.6,12.1-6.7,18.5C630.8,185,662.4,228.1,662.4,271.1z"/>
</svg>
