<?xml version="1.0" encoding="utf-8"?>
<!-- Generator: Adobe Illustrator 19.0.0, SVG Export Plug-In . SVG Version: 6.00 Build 0)  -->
<svg version="1.1" id="Layer_1" xmlns="http://www.w3.org/2000/svg" xmlns:xlink="http://www.w3.org/1999/xlink" x="0px" y="0px"
	 viewBox="0 0 400.2 400.2" style="enable-background:new 0 0 400.2 400.2;" xml:space="preserve">
<style type="text/css">
	.st0{fill:#2D2E2A;}
	.st1{fill:#FDFDFD;}
	.st2{fill:#C1FA03;}
</style>
<g>
	<path class="st0" d="M0.1,201.1c5.2-5.6,12.5-5.5,12.8,0.5c0.4,7.9,6.5,10.4,11.1,16.2c0-8,0-14.8,0-21.6
		c0-13.7,0.5-14.2,14.3-14.2c9.8,0,19.7,0,29.5,0c13.8,0,27.7-0.4,41.5,0.1c19.1,0.6,38.2-0.8,57.3,0c2.5,0.1,3.1-0.5,3-2.9
		c-0.2-5.2-0.2-10.3,0-15.5c0.2-5.5,2.9-8.3,8.3-8.5c4.8-0.2,9.7-0.2,14.5,0c5.4,0.2,7.7,2.8,7.7,8.2c0.1,4.5,0.1,9,0,13.5
		c-0.1,3.5,1.4,4.8,5,5.2c11.2,1.2,22.3-0.8,33.5-0.1c2.3,0.2,3.8-0.9,5.2-2.4c4.2-4.3,7.9-9.1,12.7-12.6c4.4-3.3,4.3-7.7,4.8-12.1
		c0.3-2.3-8.3-10-10.7-10c-3.3,0-5.7-1.5-7-4.5c-1.3-3-0.1-5.4,2.2-7.5c3.3-3.1,3.3-6.4,0.2-9.6c-5-5.1-10.2-10-15.2-15.2
		c-6.1-6.4-6.9-13.4-2.5-19.8c4.4-6.3,11.4-7.9,19.4-4.1c1.9,0.9,3,0.3,4.5-0.4c7-3.4,14.1-1.7,18.6,4.4c4.1,5.5,3.6,13.3-1.5,18.7
		c-5,5.3-10.3,10.4-15.4,15.6c-4,4-3.9,6.8,0.3,10.4c1.8,1.6,2.9,3.8,2.1,5.8c-1.7,4.2,1.1,6.2,3.4,8.3c2.2,2,3.2,6.2,7.8,4.5
		c1-0.4,3.2,0.3,3.6,1.2c3.2,5.9,8.6,4.3,13.5,4.3c3.7,0.1,7.6,1,9.6-3.7c0.5-1.1,2.2-1.6,3.6-1.4c8.5,1.2,10.7-7.1,16.1-10.6
		c0.3-0.2,0.4-1,0.3-1.4c-3.1-5.9,1.2-9.1,4.7-12.2c4.6-4,5.5-9.2,6.4-14.6c1.3-7.8,7.1-13.2,14.7-14.1c6.8-0.8,14.2,3.7,17.2,10.4
		c2.9,6.4,1.2,14.4-3.9,19.2c-3,2.7-6.7,3.8-10.4,4.3c-5.5,0.8-10,3-13.6,7.3c-2.8,3.3-6.2,6.3-11.1,3.3c-0.4-0.2-1.1-0.3-1.3-0.1
		c-2.7,2.5-5.3,5.1-8,7.5c-2.6,2.4-4.8,4.5-3.9,8.7c0.4,1.7,0.6,3,1.8,4.2c10.4,10.4,20.7,20.8,31.1,31.1c0.6,0.6,1.4,1.7,1.8,1.6
		c5.7-2.4,8.6,3.1,12.8,4.4c4.6,1.4,9.9,0.6,14.9,0.6c5.4,0.1,10.1-6.8,8.2-11.7c-0.7-1.9-2.2-1-3.4-1.2c-1.4-0.2-2,0.5-2.1,2
		c0,1.3,0.9,3.5-1.6,3.3c-2.4-0.1-0.7-2.7-1.5-3.5c-2.6-2.7-4.5-6.4-8.8-7.1c-1.2-0.2-2.6-0.2-2.5-1.8c0-1.5,1.3-1.7,2.6-1.6
		c2,0.2,2.9-0.3,2.9-2.6c0-2.6-1.2-2.6-3.1-2.5c-1.3,0.1-2.4-0.3-2.4-1.8c0-1.2,1.1-1.7,2.1-1.7c2,0.1,3.5,0,3.4-2.8
		c-0.1-2.6-1.5-2.5-3.2-2.5c-1,0-2.1-0.2-2.2-1.5c-0.1-1.6,1.1-2,2.3-1.8c2.4,0.5,3.1-0.9,3.8-2.7c0.5-1.1,1.5-2.6,2.6-2.8
		c2.3-0.5,2.9-1.6,2.7-3.7c-0.2-1.3,0.3-2.5,1.7-2.6c1.3-0.1,1.5,1.2,1.5,2.2c0,1.9-0.3,3.5,2.6,3.6c3.2,0.1,3-1.6,3-3.8
		c0-1,0.4-2.2,1.6-2c1.1,0.1,1.6,1.1,1.6,2.2c0.1,1.7-0.7,3.6,2.5,3.6c3,0,2.5-1.7,2.6-3.5c0-1.3,0.6-2.4,2-2.3
		c1.3,0.2,1.4,1.6,1.7,2.7c1.3,4.1,4.4,6.6,7.7,9c0.6,0.4,1.5,0.4,1.5,1.5c0,1.2-0.3,2-1.6,1.9c-2.1-0.2-2.4,1-2.4,2.8
		c0,1.8,0.5,2.9,2.5,2.7c1-0.1,1.5,0.5,1.5,1.5c0.1,1.2-0.3,2-1.6,1.8c-2.2-0.3-2.3,0.9-2.4,2.7c-0.1,2,0.7,2.4,2.5,2.6
		c2.4,0.2,1.6,3.1,0.8,3c-3.5-0.3-4,3.2-6.2,4.3c-1.9,0.9-3,1.8-2.7,4.1c0.2,1.1-0.1,2.4-1.7,2.5c-1.7,0.1-1.9-1.2-1.7-2.4
		c0.3-2.4-0.7-3.2-3.1-3.1c-3,0.2-1.6,2.3-1.9,3.6c-0.5,2.4-0.4,4.2,2.3,5.9c3.5,2.1,3.6,7.2,0.8,10c-2.9,2.9-7.6,2.9-10-0.7
		c-1.5-2.3-3.1-2.5-5.3-2.4c-3.5,0.1-7,0-10.5,0c-3.2,0-6.5-0.6-8.7,3c-0.9,1.5-3,1.7-5,1.6c-1.4-0.1-2.6-2.1-4-0.7
		c-2.9,2.8-6.6,5.3-8.1,8.7c-1.3,3.2-1.5,7.7,2.5,10.6c2,1.4,3.7,3.3,5.3,5.2c4.1,4.7,7.5,8,14.8,3.7c7.3-4.4,17.8-0.5,23.2,6.3
		c6.1,7.7,6.4,17.4,0.9,25.4c-5.2,7.5-14.3,10.8-22.7,8.3c-9.4-2.8-15.4-10.4-15.6-19.6c-0.1-3.6,0-7.1,2.1-10.1
		c2.3-3.2,2.1-5.3-1.1-7.8c-2.9-2.3-5.2-5.1-7.8-7.7c-2.3-2.3-4-4.9-8.3-3.3c-3,1.1-6.7-2.9-6.9-6.3c-0.2-3.6,3.3-7.8,6.8-7
		c3.7,0.9,5.1-1.3,7-3.2c1.5-1.5,3-3.1,4.5-4.7c2.6-2.9,2.7-7.4,0-10c-10.2-10.3-20.4-20.6-30.7-30.8c-1-1-1.6-2.5-3.7-1.8
		c-2.2,0.8-1.8,2.5-1.8,4.1c0,38.3,0,76.7-0.1,115c0,2.5,0.9,3.8,2.8,5.3c2.4,1.9,3.1,4.7,1.7,7.6c-1.4,2.8-3.7,4.2-6.9,4
		c-4.4-0.2-10.7,5.9-10.6,10.4c0.2,5.7-2.5,8.7-7.4,8.1c-3.8-0.5-5.9-3-5.7-6.8c0.2-3.6,2-5.9,5.8-6.2c7.1-0.7,11.8-5.4,12-12.2
		c0-1.6,0.1-3.3,1.5-4.1c4-2.2,3.5-5.8,3.5-9.5c0-37,0.1-74,0.2-111c0-5.6-3.3-9-8.7-9c-2.8,0-5.7,0.1-8.5-0.1
		c-2.8-0.1-5.2,0-6.8,2.8c-0.9,1.6-3.1,2.3-4.3,1.9c-4-1.5-5.6,1.2-7.8,3.3c-4.3,4.3-8.7,8.5-14.1,13.8c5.8,0,10,0,14.2,0
		c8,0,10.2,2.2,10.2,10.1c0,12.7,0,25.3,0,38c0,6.5-2.2,8.8-8.6,8.9c-13.3,0.1-26.7,0.1-40,0.1c-5.9,0-8.3-2.5-8.4-8.6
		c-0.1-6,0-12,0-18.4c-2.9,1.2-5.5,1.1-8.1,0.9c-3.6-0.3-4.7,1.6-4.8,4.7c0,4.7-0.1,9.3,0,14c0.1,4.9-2.7,7.4-6.9,7.3
		c-7.1-0.2-14.2,1.3-21.3-1.1c-2.4-0.8-5.1,1.4-8,1.3c-12.7-0.2-25.3-0.1-38-0.1c-7,0-9.5-2.4-9.7-9.5c-0.2-5.6,0-11.3,0-17.3
		c-1,0.2-1.6,0.2-2.1,0.5c-2.1,1.2-5.3-1.5-6.4,0.6c-1.1,2.1-0.4,5.2-0.4,7.8c0,3.7,0.1,7.3,0,11c-0.2,4.3-2.5,7-6.9,6.8
		c-6.9-0.3-14-0.6-20.8-0.7c-7.2,0-14.7,0.4-22.1,1c-2.4,0.2-2.6,2.3-2.6,4.2c0,4.5,0.1,9-0.1,13.5c-0.3,6.7-2.6,8.9-9.2,9
		c-4.2,0-8.3,0-12.5,0c-6.5,0-9.1-2.5-9.2-9c-0.1-10-0.1-20,0.1-30c0.1-3.2-0.6-5.7-3.2-7.8c-2.3-1.8-4.4-4.1-6.5-6.2
		c-1.9-2-3.6-3.8-7-2.7c-3.4,1.1-5.1-2.1-7.2-4.1C0.1,204.4,0.1,202.8,0.1,201.1z M359.1,243c-0.6,3.1,0.7,3.5,8.2,2.6
		c-0.5-2.3-2.1-2.5-4-2.4C361.9,243.3,360.4,244.5,359.1,243c-0.9-2.6-2.5-3.9-5.2-2.6c-4.5,2.2-8.7,4.8-10.4,10
		c-0.9,2.9-1,6.2,1.8,7.5c3.1,1.5,2.9,3.5,2.8,6c-0.2,6.4,1.3,8.4,7.6,10c4.2,1,8.3,0.6,12.2-1.2c8.1-3.7,12.2-14.2,8.3-21.3
		c-2.4,4.5-2.3,9.9-5.2,14.1c-1.3,2-2.9,4.5-5.3,3.7c-2.1-0.7-1.6-3.6-1.6-5.8c-0.1-4-1.3-7.7-6-8.3c-2.4-0.3-5.2-0.4-4.7-3.6
		C353.9,248.1,354.2,243.9,359.1,243z M28.2,223.7c0,10.6,0.1,21.3,0,31.9c-0.1,3.9,1,6,5.3,5.7c4.1-0.3,8.3-0.2,12.5,0
		c3.4,0.2,4.4-1.4,4.3-4.5c-0.1-4.5-0.1-9,0-13.5c0.2-5.9,2.8-8.4,8.7-8.4c4-0.1,8-0.1,12,0c4.1,0.2,5.9-1.2,5.8-5.8
		c-0.3-12.5-0.3-25,0-37.4c0.1-4.2-1.3-5.6-5.4-5.6c-12.3,0.2-24.6,0.2-36.9,0c-4.9-0.1-6.4,1.9-6.3,6.6
		C28.4,203,28.2,213.3,28.2,223.7z M169.1,210.6c0-6.7-0.1-13.3,0.1-20c0.1-3.3-1.3-4.4-4.4-4.4c-13,0-26,0-39,0
		c-3.6,0-4.9,1.6-4.9,5.2c0.2,12.8,0.1,25.6,0,38.5c0,3.2,1,4.6,4.3,4.5c13.2-0.1,26.3-0.1,39.5,0c3.6,0,4.6-1.4,4.5-4.8
		C169,223.3,169.2,216.9,169.1,210.6z M241.2,234.4c6.7,0,13.3-0.1,20,0c3.1,0,4.5-1,4.5-4.3c-0.1-13.1-0.1-26.3,0-39.4
		c0-3.3-1.4-4.5-4.5-4.4c-13,0-26,0-38.9,0c-3.3,0-4.9,1.5-4.9,4.8c0,13,0,26,0,38.9c0,3.1,1.2,4.5,4.5,4.5
		C228.3,234.3,234.7,234.4,241.2,234.4z M195.9,171.5c0-2.2-0.2-4.3,0-6.5c0.4-3.9-1.3-5.5-5.1-5.4c-3.7,0.1-7.3,0.1-11,0
		c-4.1-0.1-6.1,1.3-5.9,5.8c0.3,5,0.1,10,0.1,15c0,15.8,0,31.7,0,47.5c0,6.5,0,6.5,6.7,6.5c3.7,0,7.3-0.1,11,0
		c3,0.1,4.2-1.2,4.2-4.1c-0.1-4.5-0.1-9,0-13.5c0.2-6.1,2.9-8.6,9-8.7c1.3,0,2.7-0.1,4,0c3,0.2,4.1-1.3,4-4.2
		c-0.2-3.8-0.4-7.7,0-11.5c0.6-5.1-1.7-6.3-6.2-6.3c-9.3,0.1-10.9-1.7-10.9-11.1C195.9,173.9,195.9,172.7,195.9,171.5z M81.1,210.5
		C81.1,210.5,81.2,210.5,81.1,210.5c0,6.5,0.1,13,0,19.5c0,3.2,1.3,4.5,4.5,4.4c4.5-0.1,9-0.1,13.5,0c2.9,0,4.1-1.2,4-4.2
		c-0.2-7.5-0.1-15,0-22.5c0-1.2-0.9-2.9,0.9-3.5c1.7-0.6,2.4,0.5,3.3,2c1.6,2.7,4.7,2.2,7.2,1.7c2.5-0.6,1.6-3,1.6-4.7
		c0.1-3.8-0.3-7.7,0.1-11.5c0.4-4.2-1.4-5.6-5.3-5.6c-8.2,0.1-16.3,0.1-24.5,0c-3.8,0-5.4,1.6-5.3,5.4
		C81.2,197.9,81.1,204.2,81.1,210.5z M270.1,97c0.1-9-9.2-14.4-16.9-9.8c-2.5,1.5-4.2,2-6.9,0.2c-5.3-3.5-10.9-2.4-14.7,2.2
		c-3.7,4.5-3.6,10.5,0.6,15c5,5.3,10.4,10.3,15.4,15.7c1.8,1.9,2.6,1.5,4.1-0.1c4.9-5.2,10.1-10.2,15.1-15.3
		C268.9,102.6,270.2,99.9,270.1,97z M329.6,135c4.1-4.9,10.4-3.6,15.5-5.7c6.4-2.6,10.6-7.2,10.1-14.1c-0.5-6.5-5.6-11.6-12.2-12.4
		c-6.7-0.7-11.9,2.7-13.9,9.4c-0.9,3.2-0.6,7-2.3,9.6C323.1,127.3,325.6,130.9,329.6,135z M376.6,185.2c13.2,0,13.3,0,13.3-12.9
		c0-13.9,1.8-12.1-12.1-12.2c-13.2-0.1-13.2,0-13.2,13C364.6,185.2,364.6,185.2,376.6,185.2z M321.4,141.1c0.9-1.5-2.9-4.3,1.6-4.2
		c1.3,0,1.9,3.3,3.4,1.2c1.2-1.6-1.1-2.7-1.9-4c-0.9-1.3-1.5-3.2-2.8-3.7c-2.8,0.6,2.6,7.7-4.3,4.3c-0.7-0.3-1.4,1.3-0.9,2.3
		C317.5,138.8,318.6,140.8,321.4,141.1z M10.2,203.5c-0.4-2.3-1.8-3.2-4.1-3.2c-2.6,0-2.4,1.9-2.4,3.4c0.1,2,1.4,4.2,3.2,4.2
		C8.7,207.7,10,205.6,10.2,203.5z M295.2,159.2c0.3,1.5,1.4,2.7,3.3,2.6c2.1-0.1,3.5-1.5,3.3-3.5c-0.2-1.7-1.4-3.1-3.3-3
		C296.3,155.3,295.2,156.7,295.2,159.2z M347,202.8c-0.3-2-1.5-3.3-3.3-3.3c-2,0-3.6,1.4-3.4,3.5c0.1,2,1.5,3.2,3.8,3.1
		C346.2,205.9,346.8,204.5,347,202.8z M297.5,290.5c-1.9,0.3-3.3,1.2-3.3,3.4c0,1.9,1.1,3,3.1,3.2c2.3,0.1,3.5-1.3,3.5-3.3
		C300.8,292,299.5,290.9,297.5,290.5z M280,309.2c-2.1,0.1-3.4,1.2-3.6,2.9c-0.3,2.4,1.5,4.3,3.4,4.6c1.3,0.2,2.9-2,3.2-3.8
		C283.4,310.7,281.7,309.8,280,309.2z M264.1,158.2c0.2,2,1.3,3.4,3.4,3.4c1.9,0,3.2-1.5,3.2-3.2c0.1-1.9-1.1-3.4-3.4-3.4
		C265.2,154.9,264.5,156.3,264.1,158.2z M327.2,221.8c-0.2-2-1.5-3.3-3.5-3.1c-1.8,0.1-3.1,1.3-3,3.3c0.1,2.1,1.3,3.3,3.5,3.2
		C326,225,327.1,223.9,327.2,221.8z M381.1,203c-0.8-1.3-1.7-3-3.9-2.7c-1.9,0.3-3.3,1.5-3,3.7c0.3,1.9,1.8,2.9,3.4,2.8
		C379.5,206.7,380.9,205.5,381.1,203z M253.2,137.9c-0.1-2-1.4-3.1-3.5-3c-1.9,0.1-3.2,1.3-3.2,3.1c0,2.1,1.3,3.3,3.5,3.2
		C251.9,141.1,253.1,140.2,253.2,137.9z"/>
	<path class="st0" d="M223.6,273.8c-1.2-3.3-1.2-7-0.2-9.9c0.8-2.4,4.4-1.3,6.6-0.7c2.1,0.5,3,2.6,1.5,4.3c-2.4,2.6-0.1,3.2,1.3,4.7
		c0.5-10.1,0.5-10.1,8.2-8.9c-0.7,3.2-4,1-5.6,2.5c1.4,2.5,4.3,0,5.6,2c0.1,0.9-0.5,1.1-1.2,1.3c-1.5,0.4-3.4-0.9-4.3,1.2
		c-0.3,0.7,0.4,1.4,1,1.3c2.1-0.4,4.8,1.6,6.3-1.3c0.9-1.8,1.5-3.7,2.2-5.5c0.4-1,0.9-1.8,2-1.8c1.1,0,1.2,1,1.5,1.7
		c1.2,2.9,2.4,5.9,3.3,9.3c-3.2-3.1-5.1-2.8-9.2-0.7c-3.5,1.8-10.9,3.6-14.6-3c-0.5-0.8-1.2-1.2-2.1-0.9c-1.1,0.3-0.7,1.3-0.7,2.1
		c-0.1,0.8,0.2,1.7-0.7,2.2C224.4,273.7,224.2,273.7,223.6,273.8z"/>
	<path class="st0" d="M222.3,258.4c-2.5-0.9-2.2-2-2.1-2.9c0.1-1.7-0.4-2.4-2.2-2.3c-1.6,0-2,0.7-2,2.1c0,1,0.6,2.8-1.1,2.7
		c-2-0.2-0.9-2.1-1.1-3.3c-0.2-1.1,0.1-2.3-0.1-3.5c-0.1-1,0.6-2.7-1.3-2.4c-1.2,0.2-3.1,0.1-2.9,2.5c0.2,1.8,0,3.7,0,5.5
		c0,0.7-0.4,1.3-1.2,1.3c-0.8,0-1-0.6-1.1-1.3c0-0.3,0-0.7,0-1c-0.5-2.1,1.5-5.2-1.1-6.3c-2.5-1.1-5.6-0.4-8.7,0.2
		c1.4,2.8,4.4,0.5,5.7,2.4c-0.2,0.5-0.3,0.8-0.5,1c-1.4,1.3-5-1.2-4.6,1.9c0.4,2.9,4.2,0.1,6.3,2.2c-2.6,2.2-5.6,1.3-8.1,0.8
		c-1.9-0.3-0.8-2.9-0.9-4.4c-0.1-6.6-0.1-6.6,6.6-6.3c4.2,0.1,8.4,0.3,12.5,0.2c1.5,0,1.7,0.5,1.6,1.6c-0.1,1.4,0.2,2.2,1.9,2.2
		c1.7,0,2.5-0.5,2.3-2.3c-0.1-0.8,0.1-1.7,1.3-1.6c0.9,0.1,0.9,0.9,0.9,1.5C222.3,251.8,222.3,254.9,222.3,258.4z"/>
	<path class="st0" d="M269.9,247.6c-2.2,2.8-5.1,0.4-6.8,2.5c1.5,2.4,4.7-0.2,6,1.9c0,1.2-0.8,1-1.4,1.2c-1.5,0.5-4.3-1.3-4.3,1.5
		c0,2.4,2.6,0.9,4,1.2c0.7,0.2,1.7-0.1,2.2,1.2c-2.4,1.9-6.2,1.8-7.6,0.6c-2.5-2-0.5-5.9-1.2-9.8c-1,3.2-1.8,5.6-2.5,8
		c-0.2,0.8,0,1.8-1.1,2c-1.4,0.2-1.4-1.2-1.7-2c-0.7-1.5-0.4-3.3-1.8-4.4c-1.2,2-0.6,6.1-2.9,6.1c-2.8,0-1.4-4.1-2.6-6.1
		c-0.4-0.7-0.7-1.5-0.8-2.3c-0.2-0.8-0.6-1.8,0.4-2.1c1.4-0.4,1.5,0.7,1.7,1.8c0.3,1.3,0.8,2.5,1.2,3.8c2.1-1.4,0.3-5.8,3.7-5.5
		c2,0.2,1.5,3.6,2.4,5.5c3-0.6-0.7-6.4,4.6-5.6C263.7,247.6,266.5,246.7,269.9,247.6z"/>
	<path class="st0" d="M242.9,257.9c-1.9,0.4-2.5-0.8-3.3-1.9c-0.7-1.1-1.3-2.5-2.9-2.3c-1.7,0.2-1,1.8-1.1,2.8
		c-0.5,3.9-3.8-1.5-5.1,1.5c-0.2,0.5-5.3,1.3-6.1-0.7c-1-2.8-1.3-6.7,0-9.2c1.3-2.5,5-0.5,8.1-1.2c-1.3,4-5,0.7-6.3,3.3
		c1.3,2.4,4.7-0.5,5.8,2.4c-0.4,0.2-0.8,0.4-1.2,0.6c-1.5,0.6-3.4-0.9-4.5,1c-0.2,0.4-0.5,1.5,0.4,1.7c1.9,0.3,4.2,1.1,5.8,0.4
		c1.7-0.7,0.4-3.3,0.8-5c0.3-1.4-0.8-3.5,1-3.9c2.3-0.5,5.1-1.1,7.2,0.6c1.4,1.2,1.2,2.9,0.1,4.4
		C239.9,254.6,243.3,255.6,242.9,257.9z"/>
	<path class="st0" d="M183.5,251c3-4.3,6.9-5.5,9.4-2.8c0.5,0.5,1.4,1.1,0.8,2.1c-0.7,1-1.3,0.5-2-0.2c-1.5-1.6-3.3-1.7-4.8-0.1
		c-1.3,1.4-1.2,3.2-0.2,4.6c1.4,1.9,3.2,2,5.1,0.5c-0.2-1.8-2.8-0.2-2.6-2.2c0.1-1.2,1.2-1,1.9-0.9c1,0.1,2.6-0.6,2.9,0.9
		c0.2,1.3,0.7,2.9-0.8,4.1c-2.7,2.1-6.5,1.1-9.7-2.9c-1.5,3-3.8,4.8-7.3,3.7c-2.5-0.8-3.5-2.9-3.5-5.5c0.1-2.5,1-4.6,3.7-5.3
		C179.9,246.2,182.2,247.9,183.5,251z M181,251c-0.1-0.9-1.2-2.2-3.4-2c-2.1,0.2-2.6,1.6-2.6,3.5c0,2.1,0.8,3.6,3.1,3.5
		C180.4,255.9,181.1,254.3,181,251z"/>
	<path class="st0" d="M252.1,263.3c5.6,0,11.3,0,17.8,0c-1.1,0.8-1.4,1.2-1.8,1.3c-1.6,0.5-4.4-1.1-4.6,1.2c-0.1,2.2,2.6,0.7,4,1.1
		c0.6,0.2,1.4,0.1,1.5,0.9c0.1,0.8-0.3,1.1-1.1,1.3c-1.6,0.5-4.6-1-4.5,1.2c0.2,2.9,3.7,0.4,5.3,1.6c0.1,0.1,0.2,0.2,0.6,0.7
		c-1.9,2.6-5.5,2.2-6.9,1.3c-3.3-2.1-0.5-6.3-1.8-9.5c-5.1,0.1-3.7,4-3.8,6.9c0,0.6,0.5,1.3-0.4,1.6c-1.1,0.3-1.4-0.4-1.4-1.3
		c0-1-0.1-2,0-3C255.3,266.2,255.2,264.1,252.1,263.3z"/>
	<path class="st0" d="M222,265.9c-1.4,1-2.1,0.3-2.8-0.5c-1.3-1.4-2.7-1.3-3.8,0.2c-1.3,1.8-1.3,3.7,0.3,5.4
		c1.4,1.5,2.7,0.8,3.8-0.4c0.6-0.6,0.9-2.1,2.1-0.9c1,1,0,2-0.6,2.6c-1.8,1.8-4.1,2.3-6.3,0.7c-2.7-2-3.5-4.8-1.7-7.9
		c1.4-2.5,3.5-3.3,6.3-2.3C220.9,263.5,221.5,264.6,222,265.9z"/>
	<path class="st0" d="M163.6,248c3-1.1,5.8-1.1,10.2-0.3c-7.1,1.9-3.4,7.2-5.4,10.8C164.8,255.8,170.3,249.2,163.6,248z"/>
	<path class="st1" d="M28.2,223.7c0-10.3,0.2-20.6-0.1-30.9c-0.1-4.7,1.4-6.7,6.3-6.6c12.3,0.2,24.6,0.2,36.9,0
		c4.1-0.1,5.5,1.4,5.4,5.6c-0.2,12.5-0.3,25,0,37.4c0.1,4.5-1.7,5.9-5.8,5.8c-4-0.2-8-0.1-12,0c-5.9,0.1-8.5,2.5-8.7,8.4
		c-0.2,4.5-0.1,9,0,13.5c0.1,3-0.9,4.6-4.3,4.5c-4.1-0.2-8.3-0.3-12.5,0c-4.4,0.3-5.4-1.8-5.3-5.7C28.3,244.9,28.2,234.3,28.2,223.7
		z M56.1,212.2c0-2.2,0-4.3,0-6.5c0-1.3-0.4-2.4-1.9-2.3c-1.2,0.1-1.5,1.2-1.5,2.2c0,4.2,0,8.3-0.1,12.5c0,1.2,0.2,2.5,1.7,2.6
		c1.4,0,1.8-1.2,1.7-2.5C56,216.2,56.1,214.2,56.1,212.2z"/>
	<path class="st1" d="M169.1,210.6c0,6.3-0.1,12.7,0.1,19c0.1,3.4-0.9,4.8-4.5,4.8c-13.2-0.1-26.3-0.1-39.5,0
		c-3.3,0-4.3-1.4-4.3-4.5c0.1-12.8,0.1-25.7,0-38.5c0-3.6,1.2-5.2,4.9-5.2c13,0,26,0,39,0c3.1,0,4.5,1.1,4.4,4.4
		C169,197.3,169.1,204,169.1,210.6z M148.2,211.6C148.2,211.6,148.3,211.6,148.2,211.6c0.1-2.3,0.1-4.6,0.1-7c0-0.9-0.4-1.7-1.4-1.8
		c-1.2-0.1-1.8,0.6-1.8,1.8c0,4.6,0,9.3,0,13.9c0,0.9,0.6,1.5,1.6,1.5c1,0,1.5-0.6,1.6-1.5C148.3,216.3,148.2,213.9,148.2,211.6z"/>
	<path class="st1" d="M241.2,234.4c-6.5,0-13-0.1-19.5,0c-3.3,0.1-4.5-1.4-4.5-4.5c0-13,0-26,0-38.9c0-3.3,1.6-4.8,4.9-4.8
		c13,0,26,0,38.9,0c3.1,0,4.5,1.2,4.5,4.4c-0.1,13.1-0.1,26.3,0,39.4c0,3.4-1.4,4.4-4.5,4.3C254.5,234.3,247.9,234.4,241.2,234.4z
		 M244.2,211.4C244.2,211.4,244.2,211.4,244.2,211.4c0-2.2,0-4.3,0-6.5c0-1.1-0.4-2.1-1.6-2.1c-1.1,0-1.6,1-1.6,2.1
		c0,4.5,0,8.9,0,13.4c0,1.1,0.5,1.9,1.8,1.7c1-0.1,1.3-0.9,1.3-1.8C244.2,216,244.2,213.7,244.2,211.4z"/>
	<path class="st1" d="M195.9,171.5c0,1.2,0,2.3,0,3.5c0,9.5,1.6,11.2,10.9,11.1c4.6,0,6.8,1.2,6.2,6.3c-0.4,3.8-0.2,7.7,0,11.5
		c0.1,3-0.9,4.4-4,4.2c-1.3-0.1-2.7,0-4,0c-6.1,0.1-8.8,2.6-9,8.7c-0.2,4.5-0.1,9,0,13.5c0.1,3-1.2,4.2-4.2,4.1c-3.7-0.1-7.3,0-11,0
		c-6.7,0-6.7,0-6.7-6.5c0-15.8,0-31.7,0-47.5c0-5,0.2-10-0.1-15c-0.3-4.5,1.7-6,5.9-5.8c3.7,0.1,7.3,0.1,11,0
		c3.8-0.1,5.5,1.5,5.1,5.4C195.7,167.2,195.9,169.4,195.9,171.5z"/>
	<path class="st1" d="M81.1,210.5c0-6.3,0.1-12.6,0-19c-0.1-3.8,1.5-5.4,5.3-5.4c8.2,0.1,16.3,0.1,24.5,0c3.9,0,5.7,1.3,5.3,5.6
		c-0.4,3.8,0,7.6-0.1,11.5c0,1.7,0.9,4.1-1.6,4.7c-2.5,0.6-5.6,1-7.2-1.7c-0.9-1.5-1.6-2.6-3.3-2c-1.7,0.6-0.9,2.3-0.9,3.5
		c-0.1,7.5-0.2,15,0,22.5c0.1,3.1-1.1,4.3-4,4.2c-4.5-0.1-9-0.1-13.5,0c-3.2,0.1-4.5-1.2-4.5-4.4C81.2,223.5,81.2,217,81.1,210.5
		C81.2,210.5,81.1,210.5,81.1,210.5z"/>
	<path class="st2" d="M270.1,97c0.2,3-1.2,5.6-3.3,7.8c-5,5.1-10.2,10.1-15.1,15.3c-1.6,1.6-2.4,2-4.1,0.1
		c-5-5.3-10.4-10.3-15.4-15.7c-4.2-4.5-4.3-10.5-0.6-15c3.8-4.6,9.4-5.7,14.7-2.2c2.7,1.8,4.4,1.3,6.9-0.2
		C260.8,82.6,270.2,87.9,270.1,97z"/>
	<path class="st2" d="M329.6,135c-4-4.2-6.5-7.8-2.8-13.2c1.7-2.6,1.4-6.4,2.3-9.6c2-6.7,7.2-10.1,13.9-9.4
		c6.6,0.7,11.8,5.9,12.2,12.4c0.5,6.9-3.6,11.5-10.1,14.1C340,131.4,333.7,130.2,329.6,135z"/>
	<path class="st2" d="M376.6,185.2c-12.1,0-12.1,0-12.1-12c0-13.1,0-13.1,13.2-13c13.9,0.1,12.1-1.7,12.1,12.2
		C389.9,185.2,389.8,185.2,376.6,185.2z"/>
	<path class="st2" d="M359.1,243c-5,0.8-5.2,5.1-5.8,8.6c-0.5,3.2,2.2,3.3,4.7,3.6c4.8,0.6,5.9,4.2,6,8.3c0.1,2.2-0.4,5.1,1.6,5.8
		c2.4,0.8,4-1.8,5.3-3.7c2.8-4.3,2.7-9.6,5.2-14.1c3.9,7.1-0.2,17.6-8.3,21.3c-3.9,1.8-8,2.2-12.2,1.2c-6.3-1.5-7.8-3.5-7.6-10
		c0.1-2.5,0.3-4.5-2.8-6c-2.8-1.3-2.8-4.7-1.8-7.5c1.7-5.1,5.9-7.8,10.4-10C356.6,239.2,358.3,240.4,359.1,243L359.1,243z"/>
	<path class="st2" d="M321.4,141.1c-2.8-0.4-3.9-2.3-4.9-4.2c-0.6-1,0.2-2.6,0.9-2.3c6.9,3.5,1.5-3.6,4.3-4.3
		c1.3,0.6,1.9,2.4,2.8,3.7c0.8,1.2,3.1,2.3,1.9,4c-1.6,2.2-2.1-1.1-3.4-1.2C318.5,136.8,322.2,139.7,321.4,141.1z"/>
	<path class="st2" d="M10.2,203.5c-0.2,2.2-1.5,4.2-3.3,4.3c-1.9,0.1-3.1-2.2-3.2-4.2c-0.1-1.5-0.3-3.4,2.4-3.4
		C8.4,200.2,9.8,201.1,10.2,203.5z"/>
	<path class="st2" d="M295.2,159.2c0-2.5,1.1-3.9,3.2-4c1.9-0.1,3.2,1.4,3.3,3c0.2,2.1-1.2,3.4-3.3,3.5
		C296.6,161.9,295.5,160.7,295.2,159.2z"/>
	<path class="st2" d="M347,202.8c-0.2,1.7-0.8,3.1-2.9,3.3c-2.2,0.2-3.7-1-3.8-3.1c-0.1-2.1,1.4-3.5,3.4-3.5
		C345.6,199.5,346.8,200.8,347,202.8z"/>
	<path class="st2" d="M297.5,290.5c2,0.4,3.3,1.5,3.3,3.3c0,2-1.2,3.4-3.5,3.3c-1.9-0.1-3.1-1.2-3.1-3.2
		C294.1,291.7,295.6,290.8,297.5,290.5z"/>
	<path class="st2" d="M280,309.2c1.7,0.6,3.4,1.6,3,3.8c-0.3,1.8-1.9,4-3.2,3.8c-1.8-0.3-3.7-2.2-3.4-4.6
		C276.6,310.3,277.9,309.2,280,309.2z"/>
	<path class="st2" d="M264.1,158.2c0.4-1.9,1.2-3.2,3.2-3.2c2.3,0,3.4,1.5,3.4,3.4c0,1.7-1.4,3.2-3.2,3.2
		C265.4,161.6,264.3,160.2,264.1,158.2z"/>
	<path class="st2" d="M327.2,221.8c-0.1,2.1-1.2,3.1-3,3.3c-2.2,0.2-3.4-1-3.5-3.2c-0.1-1.9,1.2-3.2,3-3.3
		C325.7,218.6,327,219.8,327.2,221.8z"/>
	<path class="st2" d="M381.1,203c-0.2,2.5-1.6,3.8-3.5,3.9c-1.6,0.1-3.2-0.9-3.4-2.8c-0.3-2.2,1.1-3.4,3-3.7
		C379.3,199.9,380.3,201.6,381.1,203z"/>
	<path class="st2" d="M253.2,137.9c-0.1,2.3-1.3,3.2-3.2,3.3c-2.2,0.1-3.5-1.1-3.5-3.2c0-1.8,1.3-3.1,3.2-3.1
		C251.7,134.9,253,136,253.2,137.9z"/>
	<path class="st2" d="M359.1,243.1c1.3,1.4,2.8,0.2,4.2,0.2c2-0.1,3.6,0.1,4,2.4C359.8,246.6,358.5,246.2,359.1,243.1
		C359.1,243,359.1,243.1,359.1,243.1z"/>
	<path class="st1" d="M181,251c0.1,3.3-0.6,4.9-2.8,5c-2.4,0.1-3.1-1.4-3.1-3.5c0-1.9,0.5-3.3,2.6-3.5
		C179.8,248.8,180.9,250.1,181,251z"/>
	<path class="st0" d="M56.1,212.2c0,2,0,4,0,6c0,1.3-0.3,2.5-1.7,2.5c-1.5,0-1.7-1.3-1.7-2.6c0-4.2,0-8.3,0.1-12.5
		c0-1.1,0.3-2.1,1.5-2.2c1.5-0.1,1.9,1,1.9,2.3C56.1,207.9,56.1,210.1,56.1,212.2z"/>
	<path class="st0" d="M148.2,211.6c0,2.3,0,4.6,0,6.9c0,0.9-0.6,1.6-1.6,1.5c-1,0-1.6-0.6-1.6-1.5c0-4.6-0.1-9.3,0-13.9
		c0-1.1,0.6-1.9,1.8-1.8c1,0.1,1.4,0.9,1.4,1.8C148.3,207,148.3,209.3,148.2,211.6C148.3,211.6,148.2,211.6,148.2,211.6z"/>
	<path class="st0" d="M244.2,211.4c0,2.3,0,4.6,0,7c0,0.9-0.3,1.6-1.3,1.8c-1.3,0.1-1.8-0.6-1.8-1.7c0-4.5,0-8.9,0-13.4
		c0-1.1,0.5-2.1,1.6-2.1c1.2,0,1.6,0.9,1.6,2.1C244.2,207.1,244.2,209.2,244.2,211.4C244.2,211.4,244.2,211.4,244.2,211.4z"/>
</g>
</svg>
