<?xml version="1.0" encoding="utf-8"?>
<!-- Generator: Adobe Illustrator 19.0.0, SVG Export Plug-In . SVG Version: 6.00 Build 0)  -->
<svg version="1.1" id="Layer_1" xmlns="http://www.w3.org/2000/svg" xmlns:xlink="http://www.w3.org/1999/xlink" x="0px" y="0px"
	 viewBox="0 0 388.5 388.5" style="enable-background:new 0 0 388.5 388.5;" xml:space="preserve">
<style type="text/css">
	.st0{fill-rule:evenodd;clip-rule:evenodd;fill:#ED2129;}
</style>
<g>
	<path class="st0" d="M0,190.1c36.2,0,72.4,0,108.6,0c5.3,0,10.7-17.8,16-17.8c6.5,0,13,28.2,19.5,28.2c6.3,0,12.5-49.8,18.8-49.8
		c6.6,0,13.2,81.1,19.8,81.1c5.8,0,11.6-102.3,17.4-102.3c6.7,0,13.5,81.1,20.2,81.1c6.3,0,12.5-48.4,18.8-48.4
		c5.7,0,11.4,27.8,17.1,27.8h132.3v27.2c-44.1,0-88.2,0-132.3,0c-5.7,0-11.4-27.8-17.1-27.8c-6.3,0-12.5,48.4-18.8,48.4
		c-6.7,0-13.5-81.1-20.2-81.1c-5.8,0-11.6,102.3-17.4,102.3c-6.6,0-13.2-81.1-19.8-81.1c-6.4,0-12.8,49.8-19.1,49.8
		c-6.4,0-12.8-28.2-19.1-28.2c-5.2,0-10.4,17.8-15.7,17.8H0V190.1L0,190.1z"/>
</g>
</svg>
