<?xml version="1.0" encoding="utf-8"?>
<!-- Generator: Adobe Illustrator 19.0.0, SVG Export Plug-In . SVG Version: 6.00 Build 0)  -->
<svg version="1.1" id="Layer_1" xmlns="http://www.w3.org/2000/svg" xmlns:xlink="http://www.w3.org/1999/xlink" x="0px" y="0px"
	 viewBox="0 0 331.7 331.7" style="enable-background:new 0 0 331.7 331.7;" xml:space="preserve">
<style type="text/css">
	.st0{fill:#F78E1E;}
</style>
<g id="XMLID_2_">
	<g>
		<path class="st0" d="M307.6,88.1v159.7l-141.7,81.8L24.1,247.8V91.6c0.4,0.7,0.9,1.5,1.3,2.2l0,0l0,0c1.4,2,6.1,8.6,7.8,10.9
			c0.7,2.7,4.7,6.6,6,7.2v0c4.7,2.4,15,1.8,16.4,2.2l0.2,0.1L56,114c1.2-0.9,2.5-0.1,3.7,0.3c0.1,0.5,0.4,1,0.6,1.3
			c0.8,1,1.8,1.8,3.3,3.2l0.1,0.1l0.2,0.1c3.1,2,6.1,4.7,9.4,5.9c3.1,1,5.1,2.8,8.7,4c2.6,1.2,4.7,2.8,8,4.6l0.1,0l0.1,0
			c2.8,1.2,5.1,2.1,7.4,3.3l0.3,0.2l0.3,0c2.7,0.3,16.8,5.1,17.6,5.6l0.2,0.1l0.3,0.1c2.8,0.6,12.7,2.2,16.6,2.5l0.2,0l0.2,0
			c0.8-0.2,4.2,0.3,6.6,0.4c3,1.2,5.1,1,8.9,1.6c1.1,0.7,1.7,0.9,2,1.2c0,0.1,0.1,0.3,0.1,0.4c0.1,0.2,0.1,0.2,0.1,0.2
			c0,0,0,0.3-0.1,1.2c-0.8,2.5-4.9,11-6.1,12l-0.2,0.2l-0.1,0.2c0,0.2-1,0.8-2.1,1.5c-0.5,0.4-1.2,0.9-1.6,1.8
			c-0.4,0.9-0.3,2.1,0.2,3l0.3,0.6l0.6,0.3c2.2,0.9,4.4,2.2,7,3c0,0,0.1,0,0.1,0h0c3,0.9,11.7,3.2,15.2,2.7l0.4-0.1l0.3-0.2
			c1-0.7,2.2-2,2.2-3.8v0v0c0-1.5-1-2.5-1.6-2.9c-0.3-0.2-0.5-0.3-0.7-0.4c0.1-0.2,0.1-0.4,0.1-0.7c3.2-5.9,2.4-12.8,2.4-19
			c2.7,0.4,6.4,0.2,10.1-0.2c2.3-0.2,4.4-0.6,6.2-1c1.5-0.4,2.5-0.6,3.5-1.3c3.3-0.8,14.7-3.8,17.8-4.6l0,0c1.5-0.3,5.9-1.9,11-3.6
			c5.2-1.8,10.8-3.7,12.4-4.1l0.4-0.1l0.3-0.2l0.1,0c0.1,0,0.2-0.1,0.4-0.2c0.3-0.1,0.8-0.3,1.3-0.5c1.1-0.4,2.5-0.9,3.9-1.4
			c1.4-0.5,2.9-1,4.2-1.5c1.3-0.5,2.5-1,3.4-1.4c0,0,0.1,0,0.1,0c2.8-1.4,7.5-5.2,10.3-7.4c4.3-2.1,4.6-1.9,8.1-3.6
			c1-0.4,1.2-0.4,1.5-0.4c0.3,0,1-0.1,1.9-0.5l0.1,0l0.1-0.1c1-0.5,2-1.4,2.9-2.5c0.5-0.7,1.1-1.5,1.4-2.5c1,0.2,2,0.3,3.1,0.2
			c4.2,1.5,15.8,0.1,21.3-5.5l0,0l0,0c1.3-1.8,1.7-3,2.8-4.5c2.4-2.5,3.8-4.6,6.1-6.4C304.3,93.8,306.4,90,307.6,88.1z M272.6,216.1
			l2.8-8.3c-1.9-1.1-5.5-2-10.1-2c-10.2,0-17.4,5.4-17.4,13.7c0,4.9,3.8,8.3,8.4,10.5c3.6,1.8,4.9,3.2,4.9,5.1
			c0,1.9-1.7,3.6-4.9,3.6c-3.8,0-8.1-1.6-10.4-2.8l-2.8,8.2c2.4,1.7,7.1,3,12.1,3.1c10.5,0.1,18.3-4.9,18.3-14c0-5.5-4.5-8.8-8.9-11
			c-3.2-1.5-4.8-2.8-4.8-4.5c0-2.2,2-3.5,5.1-3.5C268.1,214.4,271,215.4,272.6,216.1z M236.8,216.1l2.8-8.3c-1.9-1.1-5.5-2-10.1-2
			c-10.2,0-17.4,5.4-17.4,13.7c0,4.9,3.8,8.3,8.4,10.5c3.6,1.8,4.9,3.2,4.9,5.1c0,1.9-1.7,3.6-4.9,3.6c-3.8,0-8.1-1.6-10.4-2.8
			l-2.8,8.2c2.4,1.7,7.1,3,12.1,3.1c10.5,0.1,18.3-4.9,18.3-14c0-5.5-4.5-8.8-8.9-11c-3.2-1.5-4.8-2.8-4.8-4.5c0-2.2,2-3.5,5.1-3.5
			C232.4,214.4,235.2,215.4,236.8,216.1z M204,217.7c0-7.4-5.8-11.9-13.8-11.9c-14.4,0-23.1,12.6-23.1,24.7
			c0,10.4,5.8,16.8,17.2,16.8c4.4,0,10.1-0.8,14.8-3.2l-0.8-8.4c-3.2,1.5-6.8,2.5-11.1,2.5c-3.4,0-6.1-1.1-7.6-3.1
			c-0.8-1.1-1.2-2.9-1.2-4.1C194.2,231.4,204,227.8,204,217.7z M162,217.3l2.3-11.4c-0.7,0-1.4-0.1-2.2-0.1c-5.4,0-9.8,3.7-12.6,9.1
			h-0.3c0.3-2.8,0.6-5.5,0.7-8.2h-10.1c-0.4,3.4-1,10.1-2,16.1l-4.5,23.6h11.8l2.8-14.8c1.5-7.8,5-14.4,12.4-14.4
			C160.9,217.2,161.6,217.2,162,217.3z M129,215.6l1.8-8.9h-8.5l2-10.7l-12,3.2l-1.5,7.5h-5.1l-1.6,8.9h5l-3,15.7
			c-0.7,3-0.9,5.2-0.9,7.3c0,5,3.3,8.6,10.4,8.6c2.4,0,5.4-0.3,6.9-0.9l1.3-9.2c-1,0.2-2.2,0.2-3.2,0.2c-2.6,0-3.4-1.4-3.4-3.3
			c0-1.4,0.3-3.4,0.7-5l2.7-13.4H129z M95.4,203.2l3.6-9.7c-2.4-1.2-6.2-2.7-12.8-2.7c-11.9,0-21.5,6.7-21.5,17.8
			c0,7.1,5.5,11.4,11.3,14.5c5,2.7,7.4,4.6,7.4,7.8c0,4.2-4.1,6.3-8.6,6.3c-5.1,0-9.6-1.5-12.9-3.5l-3.9,9.6c2.5,1.9,8,3.8,15.6,3.9
			c12.1,0,22.1-6.2,22.1-18.4c0-6.6-4.1-11-10.8-14.5c-4.6-2.6-7.9-4.5-7.9-7.8c0-3,2.8-5.7,8.3-5.7
			C89.8,200.8,93.6,202.2,95.4,203.2z"/>
		<path class="st0" d="M165.8,2.3l139,80.3c-0.2,0.6-0.4,1.2-0.6,1.8c-2.4,2.3-3,5.1-5,7.3h0c-0.9,1-1.8,1.5-2.9,2.8
			c-2.1,0.9-13.1,9.4-16.6,8.9l-0.1,0l-0.1,0c-0.3,0.1-0.7,0.1-1,0.1c-2.8,0-4.6-1.9-5.1-3.2c-0.6-1.4-5-4.7-6.2-6.4
			c-0.3-0.5,0.2-1.8-1-2.7l-0.1,0l-0.1,0c-0.4-0.1-0.9-0.3-1.4-0.3c-0.5-0.1-1.2,0.1-1.6,0.8l0,0l0,0c-0.4,0.9-1.3,1.8-1.3,3.2v0.1
			l0,0.1c0.4,1.2,3.4,5.7,4.2,7.9c0.2,0.7-0.2,3.1,0.1,5.3l-0.7-0.1h0h0c-2.4-0.4-4.4-0.7-6.9,0.3c-2.4,0.4-4.1,0.8-6.6,2.1
			l-0.1,0.1l-0.1,0.1c-1.2,1-22.5,11.1-24.5,11.5l0,0l-0.1,0c-1.9,0.5-7.4,2.5-9.3,3.3c-1.8,0.1-4.3,1-7.4,1.9
			c-3.4,1.1-7,2.4-8.9,2.9h0l-0.1,0c-0.1,0-0.2,0.1-0.4,0.1c-0.4,0.1-0.9,0.2-1.6,0.4c-1.3,0.4-3.1,0.8-5.1,1.3c-3.8,1-8.1,2-10,2.2
			c-3.6-0.1-5.3-0.3-8.9-0.4h-0.2l-0.2,0c-0.8,0.2-3.2-0.1-5.2-0.6c-0.6-0.1-1.1-0.2-1.5-0.3c0.8-2.3,1.3-4.7,1.7-7.3l0-0.2l0-0.2
			c-0.1-1-0.1-2.1-0.3-3.1l-0.2-1.3l-1.3-0.2c-0.2,0-0.7-0.3-1.5-0.6c-0.7-0.3-2.2-0.6-3.4,0.2l-0.5,0.3l-0.2,0.6
			c-0.8,2.1-1.6,3.8-2.5,6.3c-0.9,1.9-1.3,3.4-2.3,4.3c-1.6,0.7-2.6,0.5-4.4,0c-1.8-0.6-4-1.6-7.1-1.6h-0.1l-0.1,0
			c-5.8,0.8-27.1,0.4-32.6-1l-0.1,0h-0.1c-5.9-1-23.8-8.1-27.2-9.1c-2.6-1.1-9.8-2.9-11.1-3.5l-0.1-0.1l-0.1,0c-0.6-0.1-2.1-1-3.5-2
			c-1.5-1-2.8-2-4.2-2.5l0,0h0c-0.9-0.3-1.9-0.6-2.8-0.9c-0.3-0.1-0.7-0.2-1.1-0.2c0.2-1.6,0.2-3.2,1.2-4.6l0.1-0.1l0-0.1
			c0.6-2.9,2.7-9.5,2-13.1l0,0l0,0c-0.2-0.4-0.8-2.2-1.7-3.8c-0.9-1.5-2.2-3.1-4-2.5l-0.1,0.1l-0.1,0.1c-0.3,0.5-1.1,1.2-1.6,2
			c-0.5,0.7-0.9,1.8-0.3,2.8c0.5,2.3,2.8,3.7,3.2,5.5l0,0.1l0,0.1c0.2,0.2,0.2,0.5,0,0.9c-0.2,0.4-0.5,0.8-0.9,1.2
			c-0.8,0.8-2,1.5-2.2,1.5l-0.1,0l0,0c-2.5,1.2-5.3,1.9-8,2.8c-12.4-0.7-22.3-14.4-23.5-16.5c-0.8-1.7-2.2-1.7-2.8-2.9l0,0l7.2-4.2
			c0.1,0.4,0.2,0.8,0.5,1.2c0.6,1.1,1.4,2.2,1.2,3.1l0,0v0c0.1,1.5,1.8,6.6,2.2,8l0,0.1l0.1,0.1c0.9,0.9,2.1,1.3,3.4,1.2l0.1,0
			l0.1-0.1c1-0.6,1.2-1.7,1-2.5c-0.1-0.9-0.5-1.7-0.6-2.3c-0.5-2.5-1.5-4.8-3-7c0.4-0.6,0.3-1.4,0.3-1.9v-0.1l0-0.1
			c-0.2-0.8-0.6-1.7-1.3-2.2L165.8,2.3z M216.3,70.9c0.2-0.5-0.4-0.7-0.2-1.3c-0.9-0.8-1.9-1.1-3-1.3c-2.2,0.4-1.4,3.1-3.4,4.1
			c-0.7,0.1-1.5,0.8-2.2,0.2c-2.6-1.5-2.9,1.7-4.5,2.8c-1.6,0.7-2.8-0.4-4.3-0.6c-3.4,2.7,2.8,3.1,2,6.2c0.3,0.5,0.9,1.4,1.7,1.1
			c2-1,4.1-2.3,4.7-4.5c0.4-0.8,1.2-1.6,2.4-1.3c1.2-1.3,2.7-2.4,3-4.1C212.5,69.1,215.1,72.2,216.3,70.9z M201.3,96.2
			c0.9-2.6,0.1-5.5-0.3-8l0-0.1l0,0c-2.6-4.1-5.8-7-6.7-7.9l0,0l0,0c-1.5-0.8-5.3-3-5.3-3.3l0-0.1l-0.1,0c-1.1-0.7-3.6-1.3-5.9-1.8
			c-2.4-0.4-4.6-0.7-5.4-0.8c-0.9-0.3-4.9-0.4-7.3-0.2l-0.1,0l0,0l0,0l0,0l-0.2,0.1c-0.1,0.1-0.3,0.2-0.6,0.3c-0.5,0.3-1.2,0.6-2,1
			c-1.5,0.8-3.3,1.6-4.4,1.8c-2.4,0.3-4.1,1.4-6.5,2.4l0,0l0,0c-1.7,2-3.8,3.3-5.3,6.5c-0.9,0.9-1.1,1.1-1.2,1.4
			c-0.1,0.3-0.2,0.5-0.7,1.5l0,0v0.1c0,1.5-0.4,3.1-0.4,4.7c0,0.7,0.1,1.3,0.3,2v0c0.3,0.8,1.8,5.6,2.2,7.2c0.4,4.3,2.3,8.1,6,10.8
			l0.1,0h0.1c0.9,0,2.1,0.6,3.1,1c1.1,0.4,2.3,0.4,3.1-1l0,0l0,0c0.2-0.8-0.3-1.3-0.7-1.6c-0.4-0.3-0.8-0.5-1-0.9l0.5-0.5h0.2
			l0.1,0.1l0.1,0.4l0.2-0.3c0.3-0.5,1.2-0.2,1.7-1.1l0,0v0c0.2-3.7-3-5.4-3.5-9v0l0,0c-0.5-1.2-0.9-1.8-1.1-2.2
			c-0.2-0.4-0.3-0.6-0.4-1.2v0v0c-0.4-1.8,0.6-7.8,2.2-9.7c1-0.9,1.6-1.9,2.5-2.3h0h0c0.9-0.6,1.3-1.7,2.1-2.2l0,0l0,0
			c0.8-0.6,1.7-0.9,2.7-1.1c1-0.3,2-0.6,2.8-1.3c0.4-0.2,2.4-0.7,3.5-1c1.3-0.2,3,0,4.4,0.2c0.7,0.1,1.3,0.3,1.8,0.4
			c0.2,0.1,0.4,0.1,0.5,0.1l0.1,0l0,0h0c3,0.9,5.2,1.6,8.1,2.9c2,1.6,4.1,2.9,5.3,5c1.2,2.8,0.9,6.3,3.1,8.8l0,0.1l0.1,0
			C200.1,97.7,200.9,96.9,201.3,96.2L201.3,96.2L201.3,96.2z M182.4,45c0.1-1.4-1.6-1.4-2-2.6c-3.2-0.8-4.1,2.4-6.9,2.6
			c-1.7,0.1-3,1.5-4.9,1.3c-1.2,0.5-1.1,1.9-1.7,2.8c-1.9,1.4-1.7,4.1-1.7,6.2c-0.8,1.8,0.9,3.9-0.6,5.4l-0.4-0.4
			c-0.1-1.1-0.5-2.1-1.3-3c-1.6-1.7-3.3-3.7-3.9-6c-0.7-0.9-0.5-2.8-2.2-2.8c-1.2,0.7-2.6,1.8-2.6,3.4c0.5,1.3,1.5,1.9,2.6,2.8
			c1,2.9,2.2,5.9,4.6,8.1c0.9,1.4,2.8,2.4,2.8,4.3c0.8,1.2,2.1,2.1,3.7,1.7c1.1-0.8,3-1.5,2.3-3.4c1.2-1.4-0.5-2.6-0.3-4.1
			c-0.1-1.6,0.1-3.9-0.3-5.6c0-2.4-0.2-4.6,0.2-7.1c1.3-1.4,3.1-1.6,4.9-1.7C177.4,46.4,180.3,46.5,182.4,45z M146.9,110.7
			c0.5-1,0-2.6-0.5-3.6c-1.1-1.3-1.3-2.7-3.2-3c-1.8,0.9-3.9,0.8-5.3,2.6c-0.6,0.9-0.9,1.7-1.7,2.6c-4.7-0.1-8.9-1.8-13.3,0.1
			c-1.5,0.8-0.7,1.9-0.6,3c2.1,0,3.4-1.5,5.4-1.5c3.2-0.3,5.4,1.9,8.2,2.7c3.2,1.5,4.6-2.6,7.5-2.6
			C144.5,109.6,145.6,111.7,146.9,110.7z M142.6,85.6c1.4-1.7-0.1-3.2-0.9-4.7c-0.8-0.5-1.7-0.8-2.8-0.6c-0.8,0.3-1.2,1.2-1.5,1.9
			c0.3,1.4,1,2.8,2.2,3.6C140.5,86.3,141.7,86,142.6,85.6z M133.1,82.7c0.8-0.4,1.6-1.3,1.3-2.4c-1.2-1.6-2.8-2.3-4.5-2.8
			c-1-0.2-1.8-1.7-2.8-1.3c-0.2-0.4-0.6-0.2-0.9-0.2c-2.6,0.4-3.6-3.3-6.2-3c-0.7,0.8-1.2,1.7-1.3,2.8c0.3,1.2,0.2,2.5,1.5,3.2
			c1.5,1.8,4,1.3,6,1c0.5,0.6,1.1,1.1,1.9,0.8c0.8,1.2,2.9,0.1,3.2,1.9L133.1,82.7z"/>
		<path class="st0" d="M193,217.6L193,217.6c0,3.7-4.5,4.9-13.6,4.9c0.8-3.6,3.9-8.2,9.3-8.2C191.4,214.3,193,215.7,193,217.6z"/>
	</g>
	<g>
	</g>
</g>
</svg>
